# xmcd CD database file
#
# Track frame offsets:
#	150
#	19412
#	41544
#	63904
#	84154
#	106556
#	122369
#	144490
#	161354
#	174133
#	186850
#	199178
#	226160
#	245099
#
# Disc length: 4659 seconds
#
# Revision: 0
# Processed by: cddbd v1.5.2PL0 Copyright (c) Steve Scherf et al.
# Submitted via: CDex 1.70beta2
#
DISCID=a512310e
DTITLE=Shorty Rogers - Shorty Goes to ... Hollywood
DYEAR=1955
DGENRE=Jazz
TTITLE0=Papouche
TTITLE1=Lotus band
TTITLE2=Clark Street
TTITLE3=Zosh
TTITLE4=Frankie Machine
TTITLE5=The Fix
TTITLE6=Molly
TTITLE7=Breakup
TTITLE8=Sunday Morning
TTITLE9=Desperation
TTITLE10=Audition
TTITLE11=The Cure
TTITLE12=Finale
TTITLE13=The Voodoo Suite
EXTD=YEAR: 1955
EXTT0=
EXTT1=
EXTT2=
EXTT3=
EXTT4=
EXTT5=
EXTT6=
EXTT7=
EXTT8=
EXTT9=
EXTT10=
EXTT11=
EXTT12=
EXTT13=
PLAYORDER=
